<?xml version="1.0" encoding="UTF-8" standalone="no"?>
<!-- Generator: Adobe Illustrator 25.4.1, SVG Export Plug-In . SVG Version: 6.00 Build 0)  -->

<svg
   version="1.1"
   id="Layer_1"
   x="0px"
   y="0px"
   viewBox="0 0 921 1012.34"
   xml:space="preserve"
   sodipodi:docname="ICON EL23.svg"
   width="921"
   height="1012.34"
   inkscape:version="1.3.2 (1:1.3.2+202311252150+091e20ef0f)"
   xmlns:inkscape="http://www.inkscape.org/namespaces/inkscape"
   xmlns:sodipodi="http://sodipodi.sourceforge.net/DTD/sodipodi-0.dtd"
   xmlns="http://www.w3.org/2000/svg"
   xmlns:svg="http://www.w3.org/2000/svg"><defs
   id="defs16" /><sodipodi:namedview
   id="namedview16"
   pagecolor="#ffffff"
   bordercolor="#000000"
   borderopacity="0.25"
   inkscape:showpageshadow="2"
   inkscape:pageopacity="0.0"
   inkscape:pagecheckerboard="0"
   inkscape:deskcolor="#d1d1d1"
   inkscape:zoom="0.30566406"
   inkscape:cx="458.01917"
   inkscape:cy="505.45687"
   inkscape:window-width="1874"
   inkscape:window-height="1011"
   inkscape:window-x="0"
   inkscape:window-y="32"
   inkscape:window-maximized="1"
   inkscape:current-layer="Layer_1" />
<style
   type="text/css"
   id="style1">
	.st0{fill:#662D91;}
	.st1{display:none;fill:#662D91;}
	.st2{display:none;fill:#662D91;stroke:#662D91;stroke-width:2;stroke-miterlimit:10;}
	.st3{display:none;}
	.st4{display:inline;}
	.st5{display:inline;fill:#662D91;}
</style>
<g
   id="g2"
   transform="translate(-51.5,-5.83)">
	<path
   class="st0"
   d="M 903.99,881.15 H 537.6 c -192.48,0 -349.08,-165.6 -349.08,-369.15 0,-203.55 156.6,-369.15 349.08,-369.15 h 366.39 c 37.78,0 68.51,-30.73 68.51,-68.51 0,-37.78 -30.73,-68.51 -68.51,-68.51 H 537.6 C 269.56,5.83 51.5,232.9 51.5,512 c 0,279.1 218.06,506.17 486.1,506.17 h 366.39 c 37.78,0 68.51,-30.73 68.51,-68.51 0,-37.77 -30.73,-68.51 -68.51,-68.51 z"
   id="path1" />
	<path
   class="st0"
   d="m 559.35,415.04 c -45.51,0 -82.54,37.03 -82.54,82.54 0,45.51 37.03,82.54 82.54,82.54 H 834.9 c 45.52,0 82.55,-37.03 82.55,-82.54 0,-45.51 -37.03,-82.54 -82.55,-82.54 z"
   id="path2" />
</g>
<path
   class="st1"
   d="m 389.95,551.64 c -9.1,0 -16.5,7.4 -16.5,16.5 0,9.1 7.4,16.5 16.5,16.5 h 55.07 c 9.1,0 16.5,-7.4 16.5,-16.5 0,-9.1 -7.4,-16.5 -16.5,-16.5 z"
   id="path3" />
<path
   class="st2"
   d="m 337.92,584.79 v 0 c -7.03,0 -12.73,-5.7 -12.73,-12.73 V 395.43 c 0,-7.03 5.7,-12.73 12.73,-12.73 v 0 c 7.03,0 12.73,5.7 12.73,12.73 v 176.63 c 0,7.03 -5.7,12.73 -12.73,12.73 z"
   id="path4" />
<g
   class="st3"
   id="g14"
   transform="translate(-51.5,-5.83)">
	<path
   class="st4"
   d="m 198.63,690.3 h -23.26 v -70.82 h 22.99 v 5.57 h -16.7 v 26.43 h 15.2 v 5.66 h -15.2 v 27.6 h 16.97 z"
   id="path5" />
	<path
   class="st4"
   d="m 260.82,680.85 c 0,2.71 -0.89,4.97 -2.67,6.76 -1.78,1.79 -4.01,2.69 -6.7,2.69 h -9.91 V 707 h -6.02 v -60.72 h 6.02 v 1.22 c 2.38,-0.3 4.77,-0.6 7.15,-0.91 3.02,-0.39 5.38,-0.59 7.1,-0.59 3.35,0 5.02,1.64 5.02,4.93 v 29.92 z m -6.01,-0.91 v -28.28 l -13.26,0.36 v 32.99 h 8.33 c 3.28,0 4.93,-1.69 4.93,-5.07 z"
   id="path6" />
	<path
   class="st4"
   d="m 304.64,636.64 h -6.11 v -7.6 h 6.11 z m -0.09,53.66 h -5.93 v -44.03 h 5.93 z"
   id="path7" />
	<path
   class="st4"
   d="m 367.02,685.19 c 0,3.41 -1.69,5.11 -5.07,5.11 h -14.3 c -3.38,0 -5.07,-1.7 -5.07,-5.11 v -33.8 c 0,-3.41 1.69,-5.11 5.07,-5.11 h 14.3 c 3.38,0 5.07,1.7 5.07,5.11 v 8.78 h -5.93 v -8.6 H 348.6 v 33.44 h 12.49 v -9.82 h 5.93 z"
   id="path8" />
	<path
   class="st4"
   d="m 473.89,690.3 h -22.63 v -70.82 h 6.29 v 65.25 h 16.34 z"
   id="path9" />
	<path
   class="st4"
   d="m 534.45,690.3 h -5.93 v -1.22 c -2.38,0.33 -4.77,0.65 -7.15,0.95 -2.96,0.36 -5.32,0.54 -7.1,0.54 -3.29,0 -4.93,-1.63 -4.93,-4.89 v -16.06 c 0,-3.38 1.7,-5.07 5.11,-5.07 h 14.16 V 651.3 h -12.94 v 7.51 h -5.84 v -7.42 c 0,-3.41 1.69,-5.11 5.07,-5.11 h 14.48 c 3.38,0 5.07,1.7 5.07,5.11 z m -5.84,-5.47 v -15.57 h -13.44 v 15.84 z"
   id="path10" />
	<path
   class="st4"
   d="m 597.41,680.85 c 0,2.71 -0.89,4.97 -2.67,6.76 -1.78,1.79 -4.01,2.69 -6.7,2.69 h -15.93 v -70.82 h 6.02 v 28.01 c 2.38,-0.3 4.77,-0.6 7.15,-0.91 3.02,-0.39 5.38,-0.59 7.1,-0.59 3.35,0 5.02,1.64 5.02,4.93 v 29.93 z m -6.02,-0.91 v -28.28 l -13.26,0.36 v 32.99 h 8.33 c 3.29,0 4.93,-1.69 4.93,-5.07 z"
   id="path11" />
	<path
   class="st4"
   d="m 658.74,685.19 c 0,3.41 -1.7,5.11 -5.11,5.11 h -13.8 c -3.41,0 -5.11,-1.7 -5.11,-5.11 v -10 h 5.93 v 9.91 h 12.17 v -8.78 l -15.75,-12.9 c -1.51,-1.21 -2.26,-2.78 -2.26,-4.71 v -7.33 c 0,-3.41 1.7,-5.11 5.11,-5.11 h 13.62 c 3.41,0 5.11,1.7 5.11,5.11 v 8.78 h -5.84 v -8.69 h -12.17 v 7.69 l 15.88,12.9 c 1.48,1.18 2.22,2.78 2.22,4.8 z"
   id="path12" />
	<path
   class="st4"
   d="M 769.1,690.3 H 741 v -3.35 l 21.67,-45.02 v -16.88 h -14.43 v 15.93 h -6.33 v -16.47 c 0,-1.48 0.47,-2.68 1.4,-3.62 0.93,-0.94 2.14,-1.4 3.62,-1.4 h 17.06 c 1.48,0 2.68,0.47 3.62,1.4 0.94,0.93 1.4,2.14 1.4,3.62 v 15.02 c 0,1.81 -0.56,3.88 -1.67,6.2 l -18.73,39.01 h 20.5 v 5.56 z"
   id="path13" />
	<path
   class="st4"
   d="m 835,685.28 c 0,1.48 -0.47,2.69 -1.4,3.62 -0.94,0.94 -2.14,1.4 -3.62,1.4 h -18.24 c -1.48,0 -2.68,-0.47 -3.62,-1.4 -0.94,-0.93 -1.4,-2.14 -1.4,-3.62 v -17.96 h 6.29 v 17.42 h 15.66 v -21.67 l -12.49,-9.37 v -1.4 l 12.4,-9.23 V 625.06 H 813.1 v 15.93 h -6.29 v -16.47 c 0,-1.48 0.47,-2.68 1.4,-3.62 0.93,-0.94 2.14,-1.4 3.62,-1.4 h 18.05 c 1.48,0 2.68,0.47 3.62,1.4 0.94,0.93 1.4,2.14 1.4,3.62 v 17.24 c 0,2.26 -0.91,4.03 -2.72,5.29 l -8.42,5.93 8.51,5.93 c 1.81,1.24 2.71,3.03 2.71,5.38 v 20.99 z"
   id="path14" />
</g>
<g
   class="st3"
   id="g16"
   transform="translate(-51.5,-5.83)">
	<path
   class="st5"
   d="m 583.57,555.76 h 69.66 c 6.94,0 12.23,1.42 15.88,4.27 3.65,2.85 5.47,6.72 5.47,11.61 0,4.36 -1.45,8.05 -4.34,11.08 -2.89,3.03 -7.27,4.54 -13.15,4.54 h -98.22 c -6.67,0 -11.88,-1.85 -15.61,-5.54 -3.74,-3.69 -5.61,-8.03 -5.61,-13.01 0,-3.2 1.2,-7.45 3.6,-12.74 2.4,-5.29 5.03,-9.45 7.87,-12.48 11.83,-12.28 22.51,-22.8 32.03,-31.56 9.52,-8.76 16.33,-14.52 20.42,-17.28 7.29,-5.16 13.37,-10.34 18.22,-15.55 4.85,-5.2 8.54,-10.54 11.08,-16.01 2.54,-5.47 3.8,-10.83 3.8,-16.08 0,-5.69 -1.36,-10.79 -4.07,-15.28 -2.71,-4.49 -6.41,-7.98 -11.08,-10.48 -4.67,-2.49 -9.76,-3.74 -15.28,-3.74 -11.66,0 -20.82,5.12 -27.49,15.35 -0.89,1.33 -2.38,4.98 -4.47,10.94 -2.09,5.96 -4.45,10.54 -7.07,13.75 -2.63,3.2 -6.47,4.8 -11.54,4.8 -4.45,0 -8.14,-1.47 -11.08,-4.4 -2.94,-2.94 -4.4,-6.94 -4.4,-12.01 0,-6.14 1.38,-12.54 4.14,-19.22 2.76,-6.67 6.87,-12.72 12.34,-18.15 5.47,-5.43 12.41,-9.81 20.82,-13.15 8.41,-3.34 18.26,-5 29.56,-5 13.61,0 25.22,2.14 34.83,6.41 6.23,2.85 11.7,6.76 16.42,11.74 4.71,4.98 8.38,10.74 11.01,17.28 2.62,6.54 3.94,13.33 3.94,20.35 0,11.03 -2.74,21.07 -8.21,30.09 -5.47,9.03 -11.06,16.1 -16.75,21.22 -5.7,5.12 -15.24,13.15 -28.63,24.09 -13.39,10.94 -22.58,19.44 -27.56,25.49 -2.13,2.4 -4.31,5.29 -6.53,8.67 z"
   id="path15" />
	<path
   class="st5"
   d="m 759.86,469.15 c 8.19,0 15.23,-2.4 21.15,-7.21 5.92,-4.8 8.88,-11.7 8.88,-20.69 0,-6.85 -2.36,-12.75 -7.07,-17.68 -4.72,-4.94 -11.08,-7.41 -19.09,-7.41 -5.43,0 -9.9,0.76 -13.41,2.27 -3.52,1.51 -6.3,3.52 -8.34,6.01 -2.05,2.49 -3.98,5.7 -5.81,9.61 -1.82,3.92 -3.49,7.61 -5.01,11.08 -0.89,1.87 -2.49,3.34 -4.8,4.4 -2.31,1.07 -4.98,1.6 -8.01,1.6 -3.56,0 -6.83,-1.44 -9.81,-4.34 -2.98,-2.89 -4.47,-6.74 -4.47,-11.54 0,-4.62 1.4,-9.5 4.2,-14.61 2.8,-5.12 6.89,-9.99 12.28,-14.61 5.38,-4.62 12.08,-8.34 20.09,-11.14 8.01,-2.8 16.95,-4.2 26.83,-4.2 8.63,0 16.5,1.18 23.62,3.54 7.12,2.36 13.3,5.76 18.55,10.21 5.25,4.45 9.21,9.61 11.88,15.48 2.67,5.87 4,12.19 4,18.95 0,8.9 -1.94,16.53 -5.81,22.89 -3.87,6.36 -9.41,12.57 -16.61,18.62 6.94,3.74 12.79,8.01 17.55,12.81 4.76,4.8 8.34,10.12 10.74,15.95 2.4,5.83 3.6,12.12 3.6,18.88 0,8.1 -1.62,15.93 -4.87,23.49 -3.25,7.56 -8.03,14.3 -14.35,20.22 -6.32,5.92 -13.81,10.54 -22.49,13.88 -8.67,3.34 -18.26,5 -28.76,5 -10.68,0 -20.24,-1.91 -28.69,-5.74 -8.45,-3.82 -15.41,-8.61 -20.89,-14.35 -5.47,-5.74 -9.61,-11.68 -12.41,-17.82 -2.8,-6.14 -4.2,-11.21 -4.2,-15.21 0,-5.16 1.67,-9.32 5,-12.48 3.34,-3.16 7.49,-4.74 12.48,-4.74 2.49,0 4.89,0.73 7.21,2.2 2.31,1.47 3.82,3.23 4.54,5.27 4.63,12.37 9.59,21.55 14.88,27.56 5.29,6.01 12.75,9.01 22.35,9.01 5.52,0 10.83,-1.36 15.95,-4.07 5.11,-2.71 9.34,-6.74 12.68,-12.08 3.34,-5.34 5,-11.52 5,-18.55 0,-10.41 -2.85,-18.57 -8.54,-24.49 -5.7,-5.92 -13.61,-8.87 -23.76,-8.87 -1.78,0 -4.54,0.18 -8.27,0.53 -3.74,0.36 -6.14,0.53 -7.21,0.53 -4.89,0 -8.67,-1.22 -11.34,-3.67 -2.67,-2.45 -4,-5.85 -4,-10.21 0,-4.27 1.6,-7.72 4.81,-10.34 3.2,-2.62 7.96,-3.94 14.28,-3.94 z"
   id="path16" />
</g>
</svg>
